<?xml version="1.0" standalone="no"?>
<!DOCTYPE svg PUBLIC "-//W3C//DTD SVG 20010904//EN"
 "http://www.w3.org/TR/2001/REC-SVG-20010904/DTD/svg10.dtd">
<svg version="1.0" xmlns="http://www.w3.org/2000/svg"
 width="210.000000pt" height="210.000000pt" viewBox="0 0 210.000000 210.000000"
 preserveAspectRatio="xMidYMid meet">
<metadata>
Created by potrace 1.11, written by Peter Selinger 2001-2013
</metadata>
<g transform="translate(0.000000,210.000000) scale(0.100000,-0.100000)"
fill="#000000" stroke="none">
<path d="M10 1680 c-5 -3 -9 -290 -9 -638 l0 -632 445 0 444 0 0 130 0 130
-67 1 c-38 0 -170 0 -295 0 l-228 -1 0 134 0 133 243 1 c133 0 252 1 264 1 22
1 22 3 20 123 l-2 122 -260 1 -260 0 -5 80 c-3 44 -4 98 -2 120 l4 40 278 -1
279 0 0 130 0 131 -421 0 c-231 0 -424 -2 -428 -5z"/>
<path d="M981 1047 l0 -637 154 0 155 0 0 268 0 267 238 -2 c130 -1 242 -2
247 -2 7 -1 10 -90 10 -257 0 -141 3 -260 6 -265 3 -6 70 -8 154 -7 l149 3 1
615 c0 338 -1 624 -3 635 -3 19 -11 20 -145 20 -78 0 -147 -4 -152 -7 -7 -4
-10 -89 -10 -237 1 -162 -2 -232 -10 -235 -6 -2 -118 -4 -248 -5 l-237 -1 0
240 c0 185 -3 240 -12 241 -7 1 -77 2 -155 3 l-142 1 0 -638z"/>
</g>
</svg>
